<?xml version="1.0" encoding="utf-8" standalone="no"?>
<!DOCTYPE svg PUBLIC "-//W3C//DTD SVG 1.1//EN"
  "http://www.w3.org/Graphics/SVG/1.1/DTD/svg11.dtd">
<!-- Created with matplotlib (https://matplotlib.org/) -->
<svg height="504pt" version="1.1" viewBox="0 0 1008 504" width="1008pt" xmlns="http://www.w3.org/2000/svg" xmlns:xlink="http://www.w3.org/1999/xlink">
 <defs>
  <style type="text/css">
*{stroke-linecap:butt;stroke-linejoin:round;}
  </style>
 </defs>
 <g id="figure_1">
  <g id="patch_1">
   <path d="M 0 504 
L 1008 504 
L 1008 0 
L 0 0 
z
" style="fill:#ffffff;"/>
  </g>
  <g id="axes_1">
   <g id="patch_2">
    <path d="M 126 448.56 
L 907.2 448.56 
L 907.2 60.48 
L 126 60.48 
z
" style="fill:#ffffff;"/>
   </g>
   <g id="matplotlib.axis_1">
    <g id="xtick_1">
     <g id="line2d_1">
      <defs>
       <path d="M 0 0 
L 0 3.5 
" id="mad9dccc14b" style="stroke:#000000;stroke-width:0.8;"/>
      </defs>
      <g>
       <use style="stroke:#000000;stroke-width:0.8;" x="126" xlink:href="#mad9dccc14b" y="448.56"/>
      </g>
     </g>
     <g id="text_1">
      <!-- 1K -->
      <defs>
       <path d="M 12.40625 8.296875 
L 28.515625 8.296875 
L 28.515625 63.921875 
L 10.984375 60.40625 
L 10.984375 69.390625 
L 28.421875 72.90625 
L 38.28125 72.90625 
L 38.28125 8.296875 
L 54.390625 8.296875 
L 54.390625 0 
L 12.40625 0 
z
" id="DejaVuSans-49"/>
       <path d="M 9.8125 72.90625 
L 19.671875 72.90625 
L 19.671875 42.09375 
L 52.390625 72.90625 
L 65.09375 72.90625 
L 28.90625 38.921875 
L 67.671875 0 
L 54.6875 0 
L 19.671875 35.109375 
L 19.671875 0 
L 9.8125 0 
z
" id="DejaVuSans-75"/>
      </defs>
      <g transform="translate(125.159611 470.548538)rotate(-60)scale(0.1 -0.1)">
       <use xlink:href="#DejaVuSans-49"/>
       <use x="63.623047" xlink:href="#DejaVuSans-75"/>
      </g>
     </g>
    </g>
    <g id="xtick_2">
     <g id="line2d_2">
      <g>
       <use style="stroke:#000000;stroke-width:0.8;" x="159.965217" xlink:href="#mad9dccc14b" y="448.56"/>
      </g>
     </g>
     <g id="text_2">
      <!-- 3L -->
      <defs>
       <path d="M 40.578125 39.3125 
Q 47.65625 37.796875 51.625 33 
Q 55.609375 28.21875 55.609375 21.1875 
Q 55.609375 10.40625 48.1875 4.484375 
Q 40.765625 -1.421875 27.09375 -1.421875 
Q 22.515625 -1.421875 17.65625 -0.515625 
Q 12.796875 0.390625 7.625 2.203125 
L 7.625 11.71875 
Q 11.71875 9.328125 16.59375 8.109375 
Q 21.484375 6.890625 26.8125 6.890625 
Q 36.078125 6.890625 40.9375 10.546875 
Q 45.796875 14.203125 45.796875 21.1875 
Q 45.796875 27.640625 41.28125 31.265625 
Q 36.765625 34.90625 28.71875 34.90625 
L 20.21875 34.90625 
L 20.21875 43.015625 
L 29.109375 43.015625 
Q 36.375 43.015625 40.234375 45.921875 
Q 44.09375 48.828125 44.09375 54.296875 
Q 44.09375 59.90625 40.109375 62.90625 
Q 36.140625 65.921875 28.71875 65.921875 
Q 24.65625 65.921875 20.015625 65.03125 
Q 15.375 64.15625 9.8125 62.3125 
L 9.8125 71.09375 
Q 15.4375 72.65625 20.34375 73.4375 
Q 25.25 74.21875 29.59375 74.21875 
Q 40.828125 74.21875 47.359375 69.109375 
Q 53.90625 64.015625 53.90625 55.328125 
Q 53.90625 49.265625 50.4375 45.09375 
Q 46.96875 40.921875 40.578125 39.3125 
z
" id="DejaVuSans-51"/>
       <path d="M 9.8125 72.90625 
L 19.671875 72.90625 
L 19.671875 8.296875 
L 55.171875 8.296875 
L 55.171875 0 
L 9.8125 0 
z
" id="DejaVuSans-76"/>
      </defs>
      <g transform="translate(159.371312 469.694691)rotate(-60)scale(0.1 -0.1)">
       <use xlink:href="#DejaVuSans-51"/>
       <use x="63.623047" xlink:href="#DejaVuSans-76"/>
      </g>
     </g>
    </g>
    <g id="xtick_3">
     <g id="line2d_3">
      <g>
       <use style="stroke:#000000;stroke-width:0.8;" x="193.930435" xlink:href="#mad9dccc14b" y="448.56"/>
      </g>
     </g>
     <g id="text_3">
      <!-- 5T -->
      <defs>
       <path d="M 10.796875 72.90625 
L 49.515625 72.90625 
L 49.515625 64.59375 
L 19.828125 64.59375 
L 19.828125 46.734375 
Q 21.96875 47.46875 24.109375 47.828125 
Q 26.265625 48.1875 28.421875 48.1875 
Q 40.625 48.1875 47.75 41.5 
Q 54.890625 34.8125 54.890625 23.390625 
Q 54.890625 11.625 47.5625 5.09375 
Q 40.234375 -1.421875 26.90625 -1.421875 
Q 22.3125 -1.421875 17.546875 -0.640625 
Q 12.796875 0.140625 7.71875 1.703125 
L 7.71875 11.625 
Q 12.109375 9.234375 16.796875 8.0625 
Q 21.484375 6.890625 26.703125 6.890625 
Q 35.15625 6.890625 40.078125 11.328125 
Q 45.015625 15.765625 45.015625 23.390625 
Q 45.015625 31 40.078125 35.4375 
Q 35.15625 39.890625 26.703125 39.890625 
Q 22.75 39.890625 18.8125 39.015625 
Q 14.890625 38.140625 10.796875 36.28125 
z
" id="DejaVuSans-53"/>
       <path d="M -0.296875 72.90625 
L 61.375 72.90625 
L 61.375 64.59375 
L 35.5 64.59375 
L 35.5 0 
L 25.59375 0 
L 25.59375 64.59375 
L -0.296875 64.59375 
z
" id="DejaVuSans-84"/>
      </defs>
      <g transform="translate(193.202546 470.158826)rotate(-60)scale(0.1 -0.1)">
       <use xlink:href="#DejaVuSans-53"/>
       <use x="63.623047" xlink:href="#DejaVuSans-84"/>
      </g>
     </g>
    </g>
    <g id="xtick_4">
     <g id="line2d_4">
      <g>
       <use style="stroke:#000000;stroke-width:0.8;" x="227.895652" xlink:href="#mad9dccc14b" y="448.56"/>
      </g>
     </g>
     <g id="text_4">
      <!-- 7H -->
      <defs>
       <path d="M 8.203125 72.90625 
L 55.078125 72.90625 
L 55.078125 68.703125 
L 28.609375 0 
L 18.3125 0 
L 43.21875 64.59375 
L 8.203125 64.59375 
z
" id="DejaVuSans-55"/>
       <path d="M 9.8125 72.90625 
L 19.671875 72.90625 
L 19.671875 43.015625 
L 55.515625 43.015625 
L 55.515625 72.90625 
L 65.375 72.90625 
L 65.375 0 
L 55.515625 0 
L 55.515625 34.71875 
L 19.671875 34.71875 
L 19.671875 0 
L 9.8125 0 
z
" id="DejaVuSans-72"/>
      </defs>
      <g transform="translate(226.814638 471.382087)rotate(-60)scale(0.1 -0.1)">
       <use xlink:href="#DejaVuSans-55"/>
       <use x="63.623047" xlink:href="#DejaVuSans-72"/>
      </g>
     </g>
    </g>
    <g id="xtick_5">
     <g id="line2d_5">
      <g>
       <use style="stroke:#000000;stroke-width:0.8;" x="261.86087" xlink:href="#mad9dccc14b" y="448.56"/>
      </g>
     </g>
     <g id="text_5">
      <!-- 9R -->
      <defs>
       <path d="M 10.984375 1.515625 
L 10.984375 10.5 
Q 14.703125 8.734375 18.5 7.8125 
Q 22.3125 6.890625 25.984375 6.890625 
Q 35.75 6.890625 40.890625 13.453125 
Q 46.046875 20.015625 46.78125 33.40625 
Q 43.953125 29.203125 39.59375 26.953125 
Q 35.25 24.703125 29.984375 24.703125 
Q 19.046875 24.703125 12.671875 31.3125 
Q 6.296875 37.9375 6.296875 49.421875 
Q 6.296875 60.640625 12.9375 67.421875 
Q 19.578125 74.21875 30.609375 74.21875 
Q 43.265625 74.21875 49.921875 64.515625 
Q 56.59375 54.828125 56.59375 36.375 
Q 56.59375 19.140625 48.40625 8.859375 
Q 40.234375 -1.421875 26.421875 -1.421875 
Q 22.703125 -1.421875 18.890625 -0.6875 
Q 15.09375 0.046875 10.984375 1.515625 
z
M 30.609375 32.421875 
Q 37.25 32.421875 41.125 36.953125 
Q 45.015625 41.5 45.015625 49.421875 
Q 45.015625 57.28125 41.125 61.84375 
Q 37.25 66.40625 30.609375 66.40625 
Q 23.96875 66.40625 20.09375 61.84375 
Q 16.21875 57.28125 16.21875 49.421875 
Q 16.21875 41.5 20.09375 36.953125 
Q 23.96875 32.421875 30.609375 32.421875 
z
" id="DejaVuSans-57"/>
       <path d="M 44.390625 34.1875 
Q 47.5625 33.109375 50.5625 29.59375 
Q 53.5625 26.078125 56.59375 19.921875 
L 66.609375 0 
L 56 0 
L 46.6875 18.703125 
Q 43.0625 26.03125 39.671875 28.421875 
Q 36.28125 30.8125 30.421875 30.8125 
L 19.671875 30.8125 
L 19.671875 0 
L 9.8125 0 
L 9.8125 72.90625 
L 32.078125 72.90625 
Q 44.578125 72.90625 50.734375 67.671875 
Q 56.890625 62.453125 56.890625 51.90625 
Q 56.890625 45.015625 53.6875 40.46875 
Q 50.484375 35.9375 44.390625 34.1875 
z
M 19.671875 64.796875 
L 19.671875 38.921875 
L 32.078125 38.921875 
Q 39.203125 38.921875 42.84375 42.21875 
Q 46.484375 45.515625 46.484375 51.90625 
Q 46.484375 58.296875 42.84375 61.546875 
Q 39.203125 64.796875 32.078125 64.796875 
z
" id="DejaVuSans-82"/>
      </defs>
      <g transform="translate(260.922824 470.886829)rotate(-60)scale(0.1 -0.1)">
       <use xlink:href="#DejaVuSans-57"/>
       <use x="63.623047" xlink:href="#DejaVuSans-82"/>
      </g>
     </g>
    </g>
    <g id="xtick_6">
     <g id="line2d_6">
      <g>
       <use style="stroke:#000000;stroke-width:0.8;" x="295.826087" xlink:href="#mad9dccc14b" y="448.56"/>
      </g>
     </g>
     <g id="text_6">
      <!-- 11E -->
      <defs>
       <path d="M 9.8125 72.90625 
L 55.90625 72.90625 
L 55.90625 64.59375 
L 19.671875 64.59375 
L 19.671875 43.015625 
L 54.390625 43.015625 
L 54.390625 34.71875 
L 19.671875 34.71875 
L 19.671875 8.296875 
L 56.78125 8.296875 
L 56.78125 0 
L 9.8125 0 
z
" id="DejaVuSans-69"/>
      </defs>
      <g transform="translate(293.454838 475.85159)rotate(-60)scale(0.1 -0.1)">
       <use xlink:href="#DejaVuSans-49"/>
       <use x="63.623047" xlink:href="#DejaVuSans-49"/>
       <use x="127.246094" xlink:href="#DejaVuSans-69"/>
      </g>
     </g>
    </g>
    <g id="xtick_7">
     <g id="line2d_7">
      <g>
       <use style="stroke:#000000;stroke-width:0.8;" x="329.791304" xlink:href="#mad9dccc14b" y="448.56"/>
      </g>
     </g>
     <g id="text_7">
      <!-- 13A -->
      <defs>
       <path d="M 34.1875 63.1875 
L 20.796875 26.90625 
L 47.609375 26.90625 
z
M 28.609375 72.90625 
L 39.796875 72.90625 
L 67.578125 0 
L 57.328125 0 
L 50.6875 18.703125 
L 17.828125 18.703125 
L 11.1875 0 
L 0.78125 0 
z
" id="DejaVuSans-65"/>
      </defs>
      <g transform="translate(327.289587 476.303547)rotate(-60)scale(0.1 -0.1)">
       <use xlink:href="#DejaVuSans-49"/>
       <use x="63.623047" xlink:href="#DejaVuSans-51"/>
       <use x="127.246094" xlink:href="#DejaVuSans-65"/>
      </g>
     </g>
    </g>
    <g id="xtick_8">
     <g id="line2d_8">
      <g>
       <use style="stroke:#000000;stroke-width:0.8;" x="363.756522" xlink:href="#mad9dccc14b" y="448.56"/>
      </g>
     </g>
     <g id="text_8">
      <!-- 15F -->
      <defs>
       <path d="M 9.8125 72.90625 
L 51.703125 72.90625 
L 51.703125 64.59375 
L 19.671875 64.59375 
L 19.671875 43.109375 
L 48.578125 43.109375 
L 48.578125 34.8125 
L 19.671875 34.8125 
L 19.671875 0 
L 9.8125 0 
z
" id="DejaVuSans-70"/>
      </defs>
      <g transform="translate(361.52707 475.360391)rotate(-60)scale(0.1 -0.1)">
       <use xlink:href="#DejaVuSans-49"/>
       <use x="63.623047" xlink:href="#DejaVuSans-53"/>
       <use x="127.246094" xlink:href="#DejaVuSans-70"/>
      </g>
     </g>
    </g>
    <g id="xtick_9">
     <g id="line2d_9">
      <g>
       <use style="stroke:#000000;stroke-width:0.8;" x="397.721739" xlink:href="#mad9dccc14b" y="448.56"/>
      </g>
     </g>
     <g id="text_9">
      <!-- 17E -->
      <g transform="translate(395.35049 475.85159)rotate(-60)scale(0.1 -0.1)">
       <use xlink:href="#DejaVuSans-49"/>
       <use x="63.623047" xlink:href="#DejaVuSans-55"/>
       <use x="127.246094" xlink:href="#DejaVuSans-69"/>
      </g>
     </g>
    </g>
    <g id="xtick_10">
     <g id="line2d_10">
      <g>
       <use style="stroke:#000000;stroke-width:0.8;" x="431.686957" xlink:href="#mad9dccc14b" y="448.56"/>
      </g>
     </g>
     <g id="text_10">
      <!-- 19R -->
      <g transform="translate(429.158286 476.396915)rotate(-60)scale(0.1 -0.1)">
       <use xlink:href="#DejaVuSans-49"/>
       <use x="63.623047" xlink:href="#DejaVuSans-57"/>
       <use x="127.246094" xlink:href="#DejaVuSans-82"/>
      </g>
     </g>
    </g>
    <g id="xtick_11">
     <g id="line2d_11">
      <g>
       <use style="stroke:#000000;stroke-width:0.8;" x="465.652174" xlink:href="#mad9dccc14b" y="448.56"/>
      </g>
     </g>
     <g id="text_11">
      <!-- 21R -->
      <defs>
       <path d="M 19.1875 8.296875 
L 53.609375 8.296875 
L 53.609375 0 
L 7.328125 0 
L 7.328125 8.296875 
Q 12.9375 14.109375 22.625 23.890625 
Q 32.328125 33.6875 34.8125 36.53125 
Q 39.546875 41.84375 41.421875 45.53125 
Q 43.3125 49.21875 43.3125 52.78125 
Q 43.3125 58.59375 39.234375 62.25 
Q 35.15625 65.921875 28.609375 65.921875 
Q 23.96875 65.921875 18.8125 64.3125 
Q 13.671875 62.703125 7.8125 59.421875 
L 7.8125 69.390625 
Q 13.765625 71.78125 18.9375 73 
Q 24.125 74.21875 28.421875 74.21875 
Q 39.75 74.21875 46.484375 68.546875 
Q 53.21875 62.890625 53.21875 53.421875 
Q 53.21875 48.921875 51.53125 44.890625 
Q 49.859375 40.875 45.40625 35.40625 
Q 44.1875 33.984375 37.640625 27.21875 
Q 31.109375 20.453125 19.1875 8.296875 
z
" id="DejaVuSans-50"/>
      </defs>
      <g transform="translate(463.123503 476.396915)rotate(-60)scale(0.1 -0.1)">
       <use xlink:href="#DejaVuSans-50"/>
       <use x="63.623047" xlink:href="#DejaVuSans-49"/>
       <use x="127.246094" xlink:href="#DejaVuSans-82"/>
      </g>
     </g>
    </g>
    <g id="xtick_12">
     <g id="line2d_12">
      <g>
       <use style="stroke:#000000;stroke-width:0.8;" x="499.617391" xlink:href="#mad9dccc14b" y="448.56"/>
      </g>
     </g>
     <g id="text_12">
      <!-- 23K -->
      <g transform="translate(497.186377 476.058624)rotate(-60)scale(0.1 -0.1)">
       <use xlink:href="#DejaVuSans-50"/>
       <use x="63.623047" xlink:href="#DejaVuSans-51"/>
       <use x="127.246094" xlink:href="#DejaVuSans-75"/>
      </g>
     </g>
    </g>
    <g id="xtick_13">
     <g id="line2d_13">
      <g>
       <use style="stroke:#000000;stroke-width:0.8;" x="533.582609" xlink:href="#mad9dccc14b" y="448.56"/>
      </g>
     </g>
     <g id="text_13">
      <!-- 25D -->
      <defs>
       <path d="M 19.671875 64.796875 
L 19.671875 8.109375 
L 31.59375 8.109375 
Q 46.6875 8.109375 53.6875 14.9375 
Q 60.6875 21.78125 60.6875 36.53125 
Q 60.6875 51.171875 53.6875 57.984375 
Q 46.6875 64.796875 31.59375 64.796875 
z
M 9.8125 72.90625 
L 30.078125 72.90625 
Q 51.265625 72.90625 61.171875 64.09375 
Q 71.09375 55.28125 71.09375 36.53125 
Q 71.09375 17.671875 61.125 8.828125 
Q 51.171875 0 30.078125 0 
L 9.8125 0 
z
" id="DejaVuSans-68"/>
      </defs>
      <g transform="translate(530.866048 477.047788)rotate(-60)scale(0.1 -0.1)">
       <use xlink:href="#DejaVuSans-50"/>
       <use x="63.623047" xlink:href="#DejaVuSans-53"/>
       <use x="127.246094" xlink:href="#DejaVuSans-68"/>
      </g>
     </g>
    </g>
    <g id="xtick_14">
     <g id="line2d_14">
      <g>
       <use style="stroke:#000000;stroke-width:0.8;" x="567.547826" xlink:href="#mad9dccc14b" y="448.56"/>
      </g>
     </g>
     <g id="text_14">
      <!-- 27A -->
      <g transform="translate(565.046109 476.303547)rotate(-60)scale(0.1 -0.1)">
       <use xlink:href="#DejaVuSans-50"/>
       <use x="63.623047" xlink:href="#DejaVuSans-55"/>
       <use x="127.246094" xlink:href="#DejaVuSans-65"/>
      </g>
     </g>
    </g>
    <g id="xtick_15">
     <g id="line2d_15">
      <g>
       <use style="stroke:#000000;stroke-width:0.8;" x="601.513043" xlink:href="#mad9dccc14b" y="448.56"/>
      </g>
     </g>
     <g id="text_15">
      <!-- 29N -->
      <defs>
       <path d="M 9.8125 72.90625 
L 23.09375 72.90625 
L 55.421875 11.921875 
L 55.421875 72.90625 
L 64.984375 72.90625 
L 64.984375 0 
L 51.703125 0 
L 19.390625 60.984375 
L 19.390625 0 
L 9.8125 0 
z
" id="DejaVuSans-78"/>
      </defs>
      <g transform="translate(598.85117 476.858345)rotate(-60)scale(0.1 -0.1)">
       <use xlink:href="#DejaVuSans-50"/>
       <use x="63.623047" xlink:href="#DejaVuSans-57"/>
       <use x="127.246094" xlink:href="#DejaVuSans-78"/>
      </g>
     </g>
    </g>
    <g id="xtick_16">
     <g id="line2d_16">
      <g>
       <use style="stroke:#000000;stroke-width:0.8;" x="635.478261" xlink:href="#mad9dccc14b" y="448.56"/>
      </g>
     </g>
     <g id="text_16">
      <!-- 31L -->
      <g transform="translate(633.293731 475.204777)rotate(-60)scale(0.1 -0.1)">
       <use xlink:href="#DejaVuSans-51"/>
       <use x="63.623047" xlink:href="#DejaVuSans-49"/>
       <use x="127.246094" xlink:href="#DejaVuSans-76"/>
      </g>
     </g>
    </g>
    <g id="xtick_17">
     <g id="line2d_17">
      <g>
       <use style="stroke:#000000;stroke-width:0.8;" x="669.443478" xlink:href="#mad9dccc14b" y="448.56"/>
      </g>
     </g>
     <g id="text_17">
      <!-- 33K -->
      <g transform="translate(667.012464 476.058624)rotate(-60)scale(0.1 -0.1)">
       <use xlink:href="#DejaVuSans-51"/>
       <use x="63.623047" xlink:href="#DejaVuSans-51"/>
       <use x="127.246094" xlink:href="#DejaVuSans-75"/>
      </g>
     </g>
    </g>
    <g id="xtick_18">
     <g id="line2d_18">
      <g>
       <use style="stroke:#000000;stroke-width:0.8;" x="703.408696" xlink:href="#mad9dccc14b" y="448.56"/>
      </g>
     </g>
     <g id="text_18">
      <!-- 35A -->
      <g transform="translate(700.906978 476.303547)rotate(-60)scale(0.1 -0.1)">
       <use xlink:href="#DejaVuSans-51"/>
       <use x="63.623047" xlink:href="#DejaVuSans-53"/>
       <use x="127.246094" xlink:href="#DejaVuSans-65"/>
      </g>
     </g>
    </g>
    <g id="xtick_19">
     <g id="line2d_19">
      <g>
       <use style="stroke:#000000;stroke-width:0.8;" x="737.373913" xlink:href="#mad9dccc14b" y="448.56"/>
      </g>
     </g>
     <g id="text_19">
      <!-- 37S -->
      <defs>
       <path d="M 53.515625 70.515625 
L 53.515625 60.890625 
Q 47.90625 63.578125 42.921875 64.890625 
Q 37.9375 66.21875 33.296875 66.21875 
Q 25.25 66.21875 20.875 63.09375 
Q 16.5 59.96875 16.5 54.203125 
Q 16.5 49.359375 19.40625 46.890625 
Q 22.3125 44.4375 30.421875 42.921875 
L 36.375 41.703125 
Q 47.40625 39.59375 52.65625 34.296875 
Q 57.90625 29 57.90625 20.125 
Q 57.90625 9.515625 50.796875 4.046875 
Q 43.703125 -1.421875 29.984375 -1.421875 
Q 24.8125 -1.421875 18.96875 -0.25 
Q 13.140625 0.921875 6.890625 3.21875 
L 6.890625 13.375 
Q 12.890625 10.015625 18.65625 8.296875 
Q 24.421875 6.59375 29.984375 6.59375 
Q 38.421875 6.59375 43.015625 9.90625 
Q 47.609375 13.234375 47.609375 19.390625 
Q 47.609375 24.75 44.3125 27.78125 
Q 41.015625 30.8125 33.5 32.328125 
L 27.484375 33.5 
Q 16.453125 35.6875 11.515625 40.375 
Q 6.59375 45.0625 6.59375 53.421875 
Q 6.59375 63.09375 13.40625 68.65625 
Q 20.21875 74.21875 32.171875 74.21875 
Q 37.3125 74.21875 42.625 73.28125 
Q 47.953125 72.359375 53.515625 70.515625 
z
" id="DejaVuSans-83"/>
      </defs>
      <g transform="translate(734.995243 475.8773)rotate(-60)scale(0.1 -0.1)">
       <use xlink:href="#DejaVuSans-51"/>
       <use x="63.623047" xlink:href="#DejaVuSans-55"/>
       <use x="127.246094" xlink:href="#DejaVuSans-83"/>
      </g>
     </g>
    </g>
    <g id="xtick_20">
     <g id="line2d_20">
      <g>
       <use style="stroke:#000000;stroke-width:0.8;" x="771.33913" xlink:href="#mad9dccc14b" y="448.56"/>
      </g>
     </g>
     <g id="text_20">
      <!-- 39F -->
      <g transform="translate(769.109679 475.360391)rotate(-60)scale(0.1 -0.1)">
       <use xlink:href="#DejaVuSans-51"/>
       <use x="63.623047" xlink:href="#DejaVuSans-57"/>
       <use x="127.246094" xlink:href="#DejaVuSans-70"/>
      </g>
     </g>
    </g>
    <g id="xtick_21">
     <g id="line2d_21">
      <g>
       <use style="stroke:#000000;stroke-width:0.8;" x="805.304348" xlink:href="#mad9dccc14b" y="448.56"/>
      </g>
     </g>
     <g id="text_21">
      <!-- 41N -->
      <defs>
       <path d="M 37.796875 64.3125 
L 12.890625 25.390625 
L 37.796875 25.390625 
z
M 35.203125 72.90625 
L 47.609375 72.90625 
L 47.609375 25.390625 
L 58.015625 25.390625 
L 58.015625 17.1875 
L 47.609375 17.1875 
L 47.609375 0 
L 37.796875 0 
L 37.796875 17.1875 
L 4.890625 17.1875 
L 4.890625 26.703125 
z
" id="DejaVuSans-52"/>
      </defs>
      <g transform="translate(802.642474 476.858345)rotate(-60)scale(0.1 -0.1)">
       <use xlink:href="#DejaVuSans-52"/>
       <use x="63.623047" xlink:href="#DejaVuSans-49"/>
       <use x="127.246094" xlink:href="#DejaVuSans-78"/>
      </g>
     </g>
    </g>
    <g id="xtick_22">
     <g id="line2d_22">
      <g>
       <use style="stroke:#000000;stroke-width:0.8;" x="839.269565" xlink:href="#mad9dccc14b" y="448.56"/>
      </g>
     </g>
     <g id="text_22">
      <!-- 43T -->
      <g transform="translate(836.951051 475.668913)rotate(-60)scale(0.1 -0.1)">
       <use xlink:href="#DejaVuSans-52"/>
       <use x="63.623047" xlink:href="#DejaVuSans-51"/>
       <use x="127.246094" xlink:href="#DejaVuSans-84"/>
      </g>
     </g>
    </g>
    <g id="xtick_23">
     <g id="line2d_23">
      <g>
       <use style="stroke:#000000;stroke-width:0.8;" x="873.234783" xlink:href="#mad9dccc14b" y="448.56"/>
      </g>
     </g>
     <g id="text_23">
      <!-- 45R -->
      <g transform="translate(870.706112 476.396915)rotate(-60)scale(0.1 -0.1)">
       <use xlink:href="#DejaVuSans-52"/>
       <use x="63.623047" xlink:href="#DejaVuSans-53"/>
       <use x="127.246094" xlink:href="#DejaVuSans-82"/>
      </g>
     </g>
    </g>
    <g id="xtick_24">
     <g id="line2d_24">
      <g>
       <use style="stroke:#000000;stroke-width:0.8;" x="907.2" xlink:href="#mad9dccc14b" y="448.56"/>
      </g>
     </g>
     <g id="text_24">
      <!-- 47T -->
      <g transform="translate(904.881486 475.668913)rotate(-60)scale(0.1 -0.1)">
       <use xlink:href="#DejaVuSans-52"/>
       <use x="63.623047" xlink:href="#DejaVuSans-55"/>
       <use x="127.246094" xlink:href="#DejaVuSans-84"/>
      </g>
     </g>
    </g>
    <g id="text_25">
     <!-- Residues -->
     <defs>
      <path d="M 56.203125 29.59375 
L 56.203125 25.203125 
L 14.890625 25.203125 
Q 15.484375 15.921875 20.484375 11.0625 
Q 25.484375 6.203125 34.421875 6.203125 
Q 39.59375 6.203125 44.453125 7.46875 
Q 49.3125 8.734375 54.109375 11.28125 
L 54.109375 2.78125 
Q 49.265625 0.734375 44.1875 -0.34375 
Q 39.109375 -1.421875 33.890625 -1.421875 
Q 20.796875 -1.421875 13.15625 6.1875 
Q 5.515625 13.8125 5.515625 26.8125 
Q 5.515625 40.234375 12.765625 48.109375 
Q 20.015625 56 32.328125 56 
Q 43.359375 56 49.78125 48.890625 
Q 56.203125 41.796875 56.203125 29.59375 
z
M 47.21875 32.234375 
Q 47.125 39.59375 43.09375 43.984375 
Q 39.0625 48.390625 32.421875 48.390625 
Q 24.90625 48.390625 20.390625 44.140625 
Q 15.875 39.890625 15.1875 32.171875 
z
" id="DejaVuSans-101"/>
      <path d="M 44.28125 53.078125 
L 44.28125 44.578125 
Q 40.484375 46.53125 36.375 47.5 
Q 32.28125 48.484375 27.875 48.484375 
Q 21.1875 48.484375 17.84375 46.4375 
Q 14.5 44.390625 14.5 40.28125 
Q 14.5 37.15625 16.890625 35.375 
Q 19.28125 33.59375 26.515625 31.984375 
L 29.59375 31.296875 
Q 39.15625 29.25 43.1875 25.515625 
Q 47.21875 21.78125 47.21875 15.09375 
Q 47.21875 7.46875 41.1875 3.015625 
Q 35.15625 -1.421875 24.609375 -1.421875 
Q 20.21875 -1.421875 15.453125 -0.5625 
Q 10.6875 0.296875 5.421875 2 
L 5.421875 11.28125 
Q 10.40625 8.6875 15.234375 7.390625 
Q 20.0625 6.109375 24.8125 6.109375 
Q 31.15625 6.109375 34.5625 8.28125 
Q 37.984375 10.453125 37.984375 14.40625 
Q 37.984375 18.0625 35.515625 20.015625 
Q 33.0625 21.96875 24.703125 23.78125 
L 21.578125 24.515625 
Q 13.234375 26.265625 9.515625 29.90625 
Q 5.8125 33.546875 5.8125 39.890625 
Q 5.8125 47.609375 11.28125 51.796875 
Q 16.75 56 26.8125 56 
Q 31.78125 56 36.171875 55.265625 
Q 40.578125 54.546875 44.28125 53.078125 
z
" id="DejaVuSans-115"/>
      <path d="M 9.421875 54.6875 
L 18.40625 54.6875 
L 18.40625 0 
L 9.421875 0 
z
M 9.421875 75.984375 
L 18.40625 75.984375 
L 18.40625 64.59375 
L 9.421875 64.59375 
z
" id="DejaVuSans-105"/>
      <path d="M 45.40625 46.390625 
L 45.40625 75.984375 
L 54.390625 75.984375 
L 54.390625 0 
L 45.40625 0 
L 45.40625 8.203125 
Q 42.578125 3.328125 38.25 0.953125 
Q 33.9375 -1.421875 27.875 -1.421875 
Q 17.96875 -1.421875 11.734375 6.484375 
Q 5.515625 14.40625 5.515625 27.296875 
Q 5.515625 40.1875 11.734375 48.09375 
Q 17.96875 56 27.875 56 
Q 33.9375 56 38.25 53.625 
Q 42.578125 51.265625 45.40625 46.390625 
z
M 14.796875 27.296875 
Q 14.796875 17.390625 18.875 11.75 
Q 22.953125 6.109375 30.078125 6.109375 
Q 37.203125 6.109375 41.296875 11.75 
Q 45.40625 17.390625 45.40625 27.296875 
Q 45.40625 37.203125 41.296875 42.84375 
Q 37.203125 48.484375 30.078125 48.484375 
Q 22.953125 48.484375 18.875 42.84375 
Q 14.796875 37.203125 14.796875 27.296875 
z
" id="DejaVuSans-100"/>
      <path d="M 8.5 21.578125 
L 8.5 54.6875 
L 17.484375 54.6875 
L 17.484375 21.921875 
Q 17.484375 14.15625 20.5 10.265625 
Q 23.53125 6.390625 29.59375 6.390625 
Q 36.859375 6.390625 41.078125 11.03125 
Q 45.3125 15.671875 45.3125 23.6875 
L 45.3125 54.6875 
L 54.296875 54.6875 
L 54.296875 0 
L 45.3125 0 
L 45.3125 8.40625 
Q 42.046875 3.421875 37.71875 1 
Q 33.40625 -1.421875 27.6875 -1.421875 
Q 18.265625 -1.421875 13.375 4.4375 
Q 8.5 10.296875 8.5 21.578125 
z
M 31.109375 56 
z
" id="DejaVuSans-117"/>
     </defs>
     <g transform="translate(494.034375 489.686069)scale(0.1 -0.1)">
      <use xlink:href="#DejaVuSans-82"/>
      <use x="69.419922" xlink:href="#DejaVuSans-101"/>
      <use x="130.943359" xlink:href="#DejaVuSans-115"/>
      <use x="183.042969" xlink:href="#DejaVuSans-105"/>
      <use x="210.826172" xlink:href="#DejaVuSans-100"/>
      <use x="274.302734" xlink:href="#DejaVuSans-117"/>
      <use x="337.681641" xlink:href="#DejaVuSans-101"/>
      <use x="399.205078" xlink:href="#DejaVuSans-115"/>
     </g>
    </g>
   </g>
   <g id="matplotlib.axis_2">
    <g id="ytick_1">
     <g id="line2d_25">
      <defs>
       <path d="M 0 0 
L -3.5 0 
" id="mca7cb6f45e" style="stroke:#000000;stroke-width:0.8;"/>
      </defs>
      <g>
       <use style="stroke:#000000;stroke-width:0.8;" x="126" xlink:href="#mca7cb6f45e" y="430.976482"/>
      </g>
     </g>
     <g id="text_26">
      <!-- 45 -->
      <g transform="translate(106.275 434.775701)scale(0.1 -0.1)">
       <use xlink:href="#DejaVuSans-52"/>
       <use x="63.623047" xlink:href="#DejaVuSans-53"/>
      </g>
     </g>
    </g>
    <g id="ytick_2">
     <g id="line2d_26">
      <g>
       <use style="stroke:#000000;stroke-width:0.8;" x="126" xlink:href="#mca7cb6f45e" y="345.388641"/>
      </g>
     </g>
     <g id="text_27">
      <!-- 50 -->
      <defs>
       <path d="M 31.78125 66.40625 
Q 24.171875 66.40625 20.328125 58.90625 
Q 16.5 51.421875 16.5 36.375 
Q 16.5 21.390625 20.328125 13.890625 
Q 24.171875 6.390625 31.78125 6.390625 
Q 39.453125 6.390625 43.28125 13.890625 
Q 47.125 21.390625 47.125 36.375 
Q 47.125 51.421875 43.28125 58.90625 
Q 39.453125 66.40625 31.78125 66.40625 
z
M 31.78125 74.21875 
Q 44.046875 74.21875 50.515625 64.515625 
Q 56.984375 54.828125 56.984375 36.375 
Q 56.984375 17.96875 50.515625 8.265625 
Q 44.046875 -1.421875 31.78125 -1.421875 
Q 19.53125 -1.421875 13.0625 8.265625 
Q 6.59375 17.96875 6.59375 36.375 
Q 6.59375 54.828125 13.0625 64.515625 
Q 19.53125 74.21875 31.78125 74.21875 
z
" id="DejaVuSans-48"/>
      </defs>
      <g transform="translate(106.275 349.187859)scale(0.1 -0.1)">
       <use xlink:href="#DejaVuSans-53"/>
       <use x="63.623047" xlink:href="#DejaVuSans-48"/>
      </g>
     </g>
    </g>
    <g id="ytick_3">
     <g id="line2d_27">
      <g>
       <use style="stroke:#000000;stroke-width:0.8;" x="126" xlink:href="#mca7cb6f45e" y="259.800799"/>
      </g>
     </g>
     <g id="text_28">
      <!-- 55 -->
      <g transform="translate(106.275 263.600018)scale(0.1 -0.1)">
       <use xlink:href="#DejaVuSans-53"/>
       <use x="63.623047" xlink:href="#DejaVuSans-53"/>
      </g>
     </g>
    </g>
    <g id="ytick_4">
     <g id="line2d_28">
      <g>
       <use style="stroke:#000000;stroke-width:0.8;" x="126" xlink:href="#mca7cb6f45e" y="174.212958"/>
      </g>
     </g>
     <g id="text_29">
      <!-- 60 -->
      <defs>
       <path d="M 33.015625 40.375 
Q 26.375 40.375 22.484375 35.828125 
Q 18.609375 31.296875 18.609375 23.390625 
Q 18.609375 15.53125 22.484375 10.953125 
Q 26.375 6.390625 33.015625 6.390625 
Q 39.65625 6.390625 43.53125 10.953125 
Q 47.40625 15.53125 47.40625 23.390625 
Q 47.40625 31.296875 43.53125 35.828125 
Q 39.65625 40.375 33.015625 40.375 
z
M 52.59375 71.296875 
L 52.59375 62.3125 
Q 48.875 64.0625 45.09375 64.984375 
Q 41.3125 65.921875 37.59375 65.921875 
Q 27.828125 65.921875 22.671875 59.328125 
Q 17.53125 52.734375 16.796875 39.40625 
Q 19.671875 43.65625 24.015625 45.921875 
Q 28.375 48.1875 33.59375 48.1875 
Q 44.578125 48.1875 50.953125 41.515625 
Q 57.328125 34.859375 57.328125 23.390625 
Q 57.328125 12.15625 50.6875 5.359375 
Q 44.046875 -1.421875 33.015625 -1.421875 
Q 20.359375 -1.421875 13.671875 8.265625 
Q 6.984375 17.96875 6.984375 36.375 
Q 6.984375 53.65625 15.1875 63.9375 
Q 23.390625 74.21875 37.203125 74.21875 
Q 40.921875 74.21875 44.703125 73.484375 
Q 48.484375 72.75 52.59375 71.296875 
z
" id="DejaVuSans-54"/>
      </defs>
      <g transform="translate(106.275 178.012176)scale(0.1 -0.1)">
       <use xlink:href="#DejaVuSans-54"/>
       <use x="63.623047" xlink:href="#DejaVuSans-48"/>
      </g>
     </g>
    </g>
    <g id="ytick_5">
     <g id="line2d_29">
      <g>
       <use style="stroke:#000000;stroke-width:0.8;" x="126" xlink:href="#mca7cb6f45e" y="88.625116"/>
      </g>
     </g>
     <g id="text_30">
      <!-- 65 -->
      <g transform="translate(106.275 92.424335)scale(0.1 -0.1)">
       <use xlink:href="#DejaVuSans-54"/>
       <use x="63.623047" xlink:href="#DejaVuSans-53"/>
      </g>
     </g>
    </g>
    <g id="text_31">
     <!-- Chemical Shift (ppm) -->
     <defs>
      <path d="M 64.40625 67.28125 
L 64.40625 56.890625 
Q 59.421875 61.53125 53.78125 63.8125 
Q 48.140625 66.109375 41.796875 66.109375 
Q 29.296875 66.109375 22.65625 58.46875 
Q 16.015625 50.828125 16.015625 36.375 
Q 16.015625 21.96875 22.65625 14.328125 
Q 29.296875 6.6875 41.796875 6.6875 
Q 48.140625 6.6875 53.78125 8.984375 
Q 59.421875 11.28125 64.40625 15.921875 
L 64.40625 5.609375 
Q 59.234375 2.09375 53.4375 0.328125 
Q 47.65625 -1.421875 41.21875 -1.421875 
Q 24.65625 -1.421875 15.125 8.703125 
Q 5.609375 18.84375 5.609375 36.375 
Q 5.609375 53.953125 15.125 64.078125 
Q 24.65625 74.21875 41.21875 74.21875 
Q 47.75 74.21875 53.53125 72.484375 
Q 59.328125 70.75 64.40625 67.28125 
z
" id="DejaVuSans-67"/>
      <path d="M 54.890625 33.015625 
L 54.890625 0 
L 45.90625 0 
L 45.90625 32.71875 
Q 45.90625 40.484375 42.875 44.328125 
Q 39.84375 48.1875 33.796875 48.1875 
Q 26.515625 48.1875 22.3125 43.546875 
Q 18.109375 38.921875 18.109375 30.90625 
L 18.109375 0 
L 9.078125 0 
L 9.078125 75.984375 
L 18.109375 75.984375 
L 18.109375 46.1875 
Q 21.34375 51.125 25.703125 53.5625 
Q 30.078125 56 35.796875 56 
Q 45.21875 56 50.046875 50.171875 
Q 54.890625 44.34375 54.890625 33.015625 
z
" id="DejaVuSans-104"/>
      <path d="M 52 44.1875 
Q 55.375 50.25 60.0625 53.125 
Q 64.75 56 71.09375 56 
Q 79.640625 56 84.28125 50.015625 
Q 88.921875 44.046875 88.921875 33.015625 
L 88.921875 0 
L 79.890625 0 
L 79.890625 32.71875 
Q 79.890625 40.578125 77.09375 44.375 
Q 74.3125 48.1875 68.609375 48.1875 
Q 61.625 48.1875 57.5625 43.546875 
Q 53.515625 38.921875 53.515625 30.90625 
L 53.515625 0 
L 44.484375 0 
L 44.484375 32.71875 
Q 44.484375 40.625 41.703125 44.40625 
Q 38.921875 48.1875 33.109375 48.1875 
Q 26.21875 48.1875 22.15625 43.53125 
Q 18.109375 38.875 18.109375 30.90625 
L 18.109375 0 
L 9.078125 0 
L 9.078125 54.6875 
L 18.109375 54.6875 
L 18.109375 46.1875 
Q 21.1875 51.21875 25.484375 53.609375 
Q 29.78125 56 35.6875 56 
Q 41.65625 56 45.828125 52.96875 
Q 50 49.953125 52 44.1875 
z
" id="DejaVuSans-109"/>
      <path d="M 48.78125 52.59375 
L 48.78125 44.1875 
Q 44.96875 46.296875 41.140625 47.34375 
Q 37.3125 48.390625 33.40625 48.390625 
Q 24.65625 48.390625 19.8125 42.84375 
Q 14.984375 37.3125 14.984375 27.296875 
Q 14.984375 17.28125 19.8125 11.734375 
Q 24.65625 6.203125 33.40625 6.203125 
Q 37.3125 6.203125 41.140625 7.25 
Q 44.96875 8.296875 48.78125 10.40625 
L 48.78125 2.09375 
Q 45.015625 0.34375 40.984375 -0.53125 
Q 36.96875 -1.421875 32.421875 -1.421875 
Q 20.0625 -1.421875 12.78125 6.34375 
Q 5.515625 14.109375 5.515625 27.296875 
Q 5.515625 40.671875 12.859375 48.328125 
Q 20.21875 56 33.015625 56 
Q 37.15625 56 41.109375 55.140625 
Q 45.0625 54.296875 48.78125 52.59375 
z
" id="DejaVuSans-99"/>
      <path d="M 34.28125 27.484375 
Q 23.390625 27.484375 19.1875 25 
Q 14.984375 22.515625 14.984375 16.5 
Q 14.984375 11.71875 18.140625 8.90625 
Q 21.296875 6.109375 26.703125 6.109375 
Q 34.1875 6.109375 38.703125 11.40625 
Q 43.21875 16.703125 43.21875 25.484375 
L 43.21875 27.484375 
z
M 52.203125 31.203125 
L 52.203125 0 
L 43.21875 0 
L 43.21875 8.296875 
Q 40.140625 3.328125 35.546875 0.953125 
Q 30.953125 -1.421875 24.3125 -1.421875 
Q 15.921875 -1.421875 10.953125 3.296875 
Q 6 8.015625 6 15.921875 
Q 6 25.140625 12.171875 29.828125 
Q 18.359375 34.515625 30.609375 34.515625 
L 43.21875 34.515625 
L 43.21875 35.40625 
Q 43.21875 41.609375 39.140625 45 
Q 35.0625 48.390625 27.6875 48.390625 
Q 23 48.390625 18.546875 47.265625 
Q 14.109375 46.140625 10.015625 43.890625 
L 10.015625 52.203125 
Q 14.9375 54.109375 19.578125 55.046875 
Q 24.21875 56 28.609375 56 
Q 40.484375 56 46.34375 49.84375 
Q 52.203125 43.703125 52.203125 31.203125 
z
" id="DejaVuSans-97"/>
      <path d="M 9.421875 75.984375 
L 18.40625 75.984375 
L 18.40625 0 
L 9.421875 0 
z
" id="DejaVuSans-108"/>
      <path id="DejaVuSans-32"/>
      <path d="M 37.109375 75.984375 
L 37.109375 68.5 
L 28.515625 68.5 
Q 23.6875 68.5 21.796875 66.546875 
Q 19.921875 64.59375 19.921875 59.515625 
L 19.921875 54.6875 
L 34.71875 54.6875 
L 34.71875 47.703125 
L 19.921875 47.703125 
L 19.921875 0 
L 10.890625 0 
L 10.890625 47.703125 
L 2.296875 47.703125 
L 2.296875 54.6875 
L 10.890625 54.6875 
L 10.890625 58.5 
Q 10.890625 67.625 15.140625 71.796875 
Q 19.390625 75.984375 28.609375 75.984375 
z
" id="DejaVuSans-102"/>
      <path d="M 18.3125 70.21875 
L 18.3125 54.6875 
L 36.8125 54.6875 
L 36.8125 47.703125 
L 18.3125 47.703125 
L 18.3125 18.015625 
Q 18.3125 11.328125 20.140625 9.421875 
Q 21.96875 7.515625 27.59375 7.515625 
L 36.8125 7.515625 
L 36.8125 0 
L 27.59375 0 
Q 17.1875 0 13.234375 3.875 
Q 9.28125 7.765625 9.28125 18.015625 
L 9.28125 47.703125 
L 2.6875 47.703125 
L 2.6875 54.6875 
L 9.28125 54.6875 
L 9.28125 70.21875 
z
" id="DejaVuSans-116"/>
      <path d="M 31 75.875 
Q 24.46875 64.65625 21.28125 53.65625 
Q 18.109375 42.671875 18.109375 31.390625 
Q 18.109375 20.125 21.3125 9.0625 
Q 24.515625 -2 31 -13.1875 
L 23.1875 -13.1875 
Q 15.875 -1.703125 12.234375 9.375 
Q 8.59375 20.453125 8.59375 31.390625 
Q 8.59375 42.28125 12.203125 53.3125 
Q 15.828125 64.359375 23.1875 75.875 
z
" id="DejaVuSans-40"/>
      <path d="M 18.109375 8.203125 
L 18.109375 -20.796875 
L 9.078125 -20.796875 
L 9.078125 54.6875 
L 18.109375 54.6875 
L 18.109375 46.390625 
Q 20.953125 51.265625 25.265625 53.625 
Q 29.59375 56 35.59375 56 
Q 45.5625 56 51.78125 48.09375 
Q 58.015625 40.1875 58.015625 27.296875 
Q 58.015625 14.40625 51.78125 6.484375 
Q 45.5625 -1.421875 35.59375 -1.421875 
Q 29.59375 -1.421875 25.265625 0.953125 
Q 20.953125 3.328125 18.109375 8.203125 
z
M 48.6875 27.296875 
Q 48.6875 37.203125 44.609375 42.84375 
Q 40.53125 48.484375 33.40625 48.484375 
Q 26.265625 48.484375 22.1875 42.84375 
Q 18.109375 37.203125 18.109375 27.296875 
Q 18.109375 17.390625 22.1875 11.75 
Q 26.265625 6.109375 33.40625 6.109375 
Q 40.53125 6.109375 44.609375 11.75 
Q 48.6875 17.390625 48.6875 27.296875 
z
" id="DejaVuSans-112"/>
      <path d="M 8.015625 75.875 
L 15.828125 75.875 
Q 23.140625 64.359375 26.78125 53.3125 
Q 30.421875 42.28125 30.421875 31.390625 
Q 30.421875 20.453125 26.78125 9.375 
Q 23.140625 -1.703125 15.828125 -13.1875 
L 8.015625 -13.1875 
Q 14.5 -2 17.703125 9.0625 
Q 20.90625 20.125 20.90625 31.390625 
Q 20.90625 42.671875 17.703125 53.65625 
Q 14.5 64.65625 8.015625 75.875 
z
" id="DejaVuSans-41"/>
     </defs>
     <g transform="translate(100.195312 307.468438)rotate(-90)scale(0.1 -0.1)">
      <use xlink:href="#DejaVuSans-67"/>
      <use x="69.824219" xlink:href="#DejaVuSans-104"/>
      <use x="133.203125" xlink:href="#DejaVuSans-101"/>
      <use x="194.726562" xlink:href="#DejaVuSans-109"/>
      <use x="292.138672" xlink:href="#DejaVuSans-105"/>
      <use x="319.921875" xlink:href="#DejaVuSans-99"/>
      <use x="374.902344" xlink:href="#DejaVuSans-97"/>
      <use x="436.181641" xlink:href="#DejaVuSans-108"/>
      <use x="463.964844" xlink:href="#DejaVuSans-32"/>
      <use x="495.751953" xlink:href="#DejaVuSans-83"/>
      <use x="559.228516" xlink:href="#DejaVuSans-104"/>
      <use x="622.607422" xlink:href="#DejaVuSans-105"/>
      <use x="650.390625" xlink:href="#DejaVuSans-102"/>
      <use x="685.580078" xlink:href="#DejaVuSans-116"/>
      <use x="724.789062" xlink:href="#DejaVuSans-32"/>
      <use x="756.576172" xlink:href="#DejaVuSans-40"/>
      <use x="795.589844" xlink:href="#DejaVuSans-112"/>
      <use x="859.066406" xlink:href="#DejaVuSans-112"/>
      <use x="922.542969" xlink:href="#DejaVuSans-109"/>
      <use x="1019.955078" xlink:href="#DejaVuSans-41"/>
     </g>
    </g>
   </g>
   <g id="line2d_30">
    <path clip-path="url(#pd8855adfe7)" d="M 126 211.974313 
L 142.982609 231.14599 
L 159.965217 226.541364 
L 176.947826 123.544956 
L 193.930435 99.066833 
L 210.913043 122.432314 
L 227.895652 219.677219 
L 244.878261 273.905675 
L 261.86087 228.663942 
L 278.843478 214.661772 
L 295.826087 201.498362 
L 312.808696 185.647493 
L 329.791304 275.497609 
L 346.773913 226.763892 
L 363.756522 178.440997 
L 380.73913 211.443669 
L 397.721739 203.193001 
L 414.704348 203.347059 
L 431.686957 201.65242 
L 448.669565 284.689743 
L 465.652174 230.067583 
L 482.634783 298.726149 
L 499.617391 234.672209 
L 516.6 226.729657 
L 533.582609 274.744436 
L 550.565217 132.463209 
L 567.547826 295.114343 
L 584.530435 296.295455 
L 601.513043 329.298126 
L 618.495652 112.88071 
L 635.478261 247.54462 
L 652.46087 209.560736 
L 669.443478 235.01456 
L 686.426087 230.735168 
L 703.408696 290.407011 
L 720.391304 131.282096 
L 737.373913 193.795456 
L 754.356522 124.760303 
L 771.33913 203.501117 
L 788.321739 132.343386 
L 805.304348 283.337456 
L 822.286957 146.705025 
L 839.269565 146.482497 
L 856.252174 210.262557 
L 873.234783 247.510385 
L 890.217391 426.320504 
L 907.2 123.031428 
" style="fill:none;stroke:#2ca02c;stroke-linecap:square;stroke-width:1.5;"/>
    <defs>
     <path d="M 0 1.5 
C 0.397805 1.5 0.77937 1.341951 1.06066 1.06066 
C 1.341951 0.77937 1.5 0.397805 1.5 0 
C 1.5 -0.397805 1.341951 -0.77937 1.06066 -1.06066 
C 0.77937 -1.341951 0.397805 -1.5 0 -1.5 
C -0.397805 -1.5 -0.77937 -1.341951 -1.06066 -1.06066 
C -1.341951 -0.77937 -1.5 -0.397805 -1.5 0 
C -1.5 0.397805 -1.341951 0.77937 -1.06066 1.06066 
C -0.77937 1.341951 -0.397805 1.5 0 1.5 
z
" id="m2093634b3c" style="stroke:#2ca02c;"/>
    </defs>
    <g clip-path="url(#pd8855adfe7)">
     <use style="fill:#2ca02c;stroke:#2ca02c;" x="126" xlink:href="#m2093634b3c" y="211.974313"/>
     <use style="fill:#2ca02c;stroke:#2ca02c;" x="142.982609" xlink:href="#m2093634b3c" y="231.14599"/>
     <use style="fill:#2ca02c;stroke:#2ca02c;" x="159.965217" xlink:href="#m2093634b3c" y="226.541364"/>
     <use style="fill:#2ca02c;stroke:#2ca02c;" x="176.947826" xlink:href="#m2093634b3c" y="123.544956"/>
     <use style="fill:#2ca02c;stroke:#2ca02c;" x="193.930435" xlink:href="#m2093634b3c" y="99.066833"/>
     <use style="fill:#2ca02c;stroke:#2ca02c;" x="210.913043" xlink:href="#m2093634b3c" y="122.432314"/>
     <use style="fill:#2ca02c;stroke:#2ca02c;" x="227.895652" xlink:href="#m2093634b3c" y="219.677219"/>
     <use style="fill:#2ca02c;stroke:#2ca02c;" x="244.878261" xlink:href="#m2093634b3c" y="273.905675"/>
     <use style="fill:#2ca02c;stroke:#2ca02c;" x="261.86087" xlink:href="#m2093634b3c" y="228.663942"/>
     <use style="fill:#2ca02c;stroke:#2ca02c;" x="278.843478" xlink:href="#m2093634b3c" y="214.661772"/>
     <use style="fill:#2ca02c;stroke:#2ca02c;" x="295.826087" xlink:href="#m2093634b3c" y="201.498362"/>
     <use style="fill:#2ca02c;stroke:#2ca02c;" x="312.808696" xlink:href="#m2093634b3c" y="185.647493"/>
     <use style="fill:#2ca02c;stroke:#2ca02c;" x="329.791304" xlink:href="#m2093634b3c" y="275.497609"/>
     <use style="fill:#2ca02c;stroke:#2ca02c;" x="346.773913" xlink:href="#m2093634b3c" y="226.763892"/>
     <use style="fill:#2ca02c;stroke:#2ca02c;" x="363.756522" xlink:href="#m2093634b3c" y="178.440997"/>
     <use style="fill:#2ca02c;stroke:#2ca02c;" x="380.73913" xlink:href="#m2093634b3c" y="211.443669"/>
     <use style="fill:#2ca02c;stroke:#2ca02c;" x="397.721739" xlink:href="#m2093634b3c" y="203.193001"/>
     <use style="fill:#2ca02c;stroke:#2ca02c;" x="414.704348" xlink:href="#m2093634b3c" y="203.347059"/>
     <use style="fill:#2ca02c;stroke:#2ca02c;" x="431.686957" xlink:href="#m2093634b3c" y="201.65242"/>
     <use style="fill:#2ca02c;stroke:#2ca02c;" x="448.669565" xlink:href="#m2093634b3c" y="284.689743"/>
     <use style="fill:#2ca02c;stroke:#2ca02c;" x="465.652174" xlink:href="#m2093634b3c" y="230.067583"/>
     <use style="fill:#2ca02c;stroke:#2ca02c;" x="482.634783" xlink:href="#m2093634b3c" y="298.726149"/>
     <use style="fill:#2ca02c;stroke:#2ca02c;" x="499.617391" xlink:href="#m2093634b3c" y="234.672209"/>
     <use style="fill:#2ca02c;stroke:#2ca02c;" x="516.6" xlink:href="#m2093634b3c" y="226.729657"/>
     <use style="fill:#2ca02c;stroke:#2ca02c;" x="533.582609" xlink:href="#m2093634b3c" y="274.744436"/>
     <use style="fill:#2ca02c;stroke:#2ca02c;" x="550.565217" xlink:href="#m2093634b3c" y="132.463209"/>
     <use style="fill:#2ca02c;stroke:#2ca02c;" x="567.547826" xlink:href="#m2093634b3c" y="295.114343"/>
     <use style="fill:#2ca02c;stroke:#2ca02c;" x="584.530435" xlink:href="#m2093634b3c" y="296.295455"/>
     <use style="fill:#2ca02c;stroke:#2ca02c;" x="601.513043" xlink:href="#m2093634b3c" y="329.298126"/>
     <use style="fill:#2ca02c;stroke:#2ca02c;" x="618.495652" xlink:href="#m2093634b3c" y="112.88071"/>
     <use style="fill:#2ca02c;stroke:#2ca02c;" x="635.478261" xlink:href="#m2093634b3c" y="247.54462"/>
     <use style="fill:#2ca02c;stroke:#2ca02c;" x="652.46087" xlink:href="#m2093634b3c" y="209.560736"/>
     <use style="fill:#2ca02c;stroke:#2ca02c;" x="669.443478" xlink:href="#m2093634b3c" y="235.01456"/>
     <use style="fill:#2ca02c;stroke:#2ca02c;" x="686.426087" xlink:href="#m2093634b3c" y="230.735168"/>
     <use style="fill:#2ca02c;stroke:#2ca02c;" x="703.408696" xlink:href="#m2093634b3c" y="290.407011"/>
     <use style="fill:#2ca02c;stroke:#2ca02c;" x="720.391304" xlink:href="#m2093634b3c" y="131.282096"/>
     <use style="fill:#2ca02c;stroke:#2ca02c;" x="737.373913" xlink:href="#m2093634b3c" y="193.795456"/>
     <use style="fill:#2ca02c;stroke:#2ca02c;" x="754.356522" xlink:href="#m2093634b3c" y="124.760303"/>
     <use style="fill:#2ca02c;stroke:#2ca02c;" x="771.33913" xlink:href="#m2093634b3c" y="203.501117"/>
     <use style="fill:#2ca02c;stroke:#2ca02c;" x="788.321739" xlink:href="#m2093634b3c" y="132.343386"/>
     <use style="fill:#2ca02c;stroke:#2ca02c;" x="805.304348" xlink:href="#m2093634b3c" y="283.337456"/>
     <use style="fill:#2ca02c;stroke:#2ca02c;" x="822.286957" xlink:href="#m2093634b3c" y="146.705025"/>
     <use style="fill:#2ca02c;stroke:#2ca02c;" x="839.269565" xlink:href="#m2093634b3c" y="146.482497"/>
     <use style="fill:#2ca02c;stroke:#2ca02c;" x="856.252174" xlink:href="#m2093634b3c" y="210.262557"/>
     <use style="fill:#2ca02c;stroke:#2ca02c;" x="873.234783" xlink:href="#m2093634b3c" y="247.510385"/>
     <use style="fill:#2ca02c;stroke:#2ca02c;" x="890.217391" xlink:href="#m2093634b3c" y="426.320504"/>
     <use style="fill:#2ca02c;stroke:#2ca02c;" x="907.2" xlink:href="#m2093634b3c" y="123.031428"/>
    </g>
   </g>
   <g id="line2d_31">
    <path clip-path="url(#pd8855adfe7)" d="M 126 245.417613 
L 142.982609 258.136814 
L 159.965217 252.389292 
L 176.947826 150.089395 
L 193.930435 148.671398 
L 210.913043 121.015675 
L 227.895652 227.235301 
L 244.878261 224.924935 
L 261.86087 201.166629 
L 278.843478 196.810662 
L 295.826087 200.368291 
L 312.808696 180.470594 
L 329.791304 270.735352 
L 346.773913 202.643402 
L 363.756522 157.836298 
L 380.73913 191.753925 
L 397.721739 190.011788 
L 414.704348 192.960079 
L 431.686957 200.470825 
L 448.669565 267.616293 
L 465.652174 198.708552 
L 482.634783 284.572884 
L 499.617391 220.482419 
L 516.6 235.846118 
L 533.582609 237.226017 
L 550.565217 117.212863 
L 567.547826 298.678075 
L 584.530435 297.076124 
L 601.513043 320.483589 
L 618.495652 100.95293 
L 635.478261 260.792462 
L 652.46087 214.180199 
L 669.443478 228.580081 
L 686.426087 183.664395 
L 703.408696 265.157845 
L 720.391304 78.12 
L 737.373913 163.94127 
L 754.356522 102.017137 
L 771.33913 212.739895 
L 788.321739 99.38157 
L 805.304348 296.852551 
L 822.286957 181.671114 
L 839.269565 116.298697 
L 856.252174 213.129022 
L 873.234783 229.867222 
L 890.217391 429.345679 
L 907.2 123.931475 
" style="fill:none;stroke:#1f77b4;stroke-linecap:square;stroke-width:1.5;"/>
    <defs>
     <path d="M 0 1.5 
C 0.397805 1.5 0.77937 1.341951 1.06066 1.06066 
C 1.341951 0.77937 1.5 0.397805 1.5 0 
C 1.5 -0.397805 1.341951 -0.77937 1.06066 -1.06066 
C 0.77937 -1.341951 0.397805 -1.5 0 -1.5 
C -0.397805 -1.5 -0.77937 -1.341951 -1.06066 -1.06066 
C -1.341951 -0.77937 -1.5 -0.397805 -1.5 0 
C -1.5 0.397805 -1.341951 0.77937 -1.06066 1.06066 
C -0.77937 1.341951 -0.397805 1.5 0 1.5 
z
" id="ma39837e9ce" style="stroke:#1f77b4;"/>
    </defs>
    <g clip-path="url(#pd8855adfe7)">
     <use style="fill:#1f77b4;stroke:#1f77b4;" x="126" xlink:href="#ma39837e9ce" y="245.417613"/>
     <use style="fill:#1f77b4;stroke:#1f77b4;" x="142.982609" xlink:href="#ma39837e9ce" y="258.136814"/>
     <use style="fill:#1f77b4;stroke:#1f77b4;" x="159.965217" xlink:href="#ma39837e9ce" y="252.389292"/>
     <use style="fill:#1f77b4;stroke:#1f77b4;" x="176.947826" xlink:href="#ma39837e9ce" y="150.089395"/>
     <use style="fill:#1f77b4;stroke:#1f77b4;" x="193.930435" xlink:href="#ma39837e9ce" y="148.671398"/>
     <use style="fill:#1f77b4;stroke:#1f77b4;" x="210.913043" xlink:href="#ma39837e9ce" y="121.015675"/>
     <use style="fill:#1f77b4;stroke:#1f77b4;" x="227.895652" xlink:href="#ma39837e9ce" y="227.235301"/>
     <use style="fill:#1f77b4;stroke:#1f77b4;" x="244.878261" xlink:href="#ma39837e9ce" y="224.924935"/>
     <use style="fill:#1f77b4;stroke:#1f77b4;" x="261.86087" xlink:href="#ma39837e9ce" y="201.166629"/>
     <use style="fill:#1f77b4;stroke:#1f77b4;" x="278.843478" xlink:href="#ma39837e9ce" y="196.810662"/>
     <use style="fill:#1f77b4;stroke:#1f77b4;" x="295.826087" xlink:href="#ma39837e9ce" y="200.368291"/>
     <use style="fill:#1f77b4;stroke:#1f77b4;" x="312.808696" xlink:href="#ma39837e9ce" y="180.470594"/>
     <use style="fill:#1f77b4;stroke:#1f77b4;" x="329.791304" xlink:href="#ma39837e9ce" y="270.735352"/>
     <use style="fill:#1f77b4;stroke:#1f77b4;" x="346.773913" xlink:href="#ma39837e9ce" y="202.643402"/>
     <use style="fill:#1f77b4;stroke:#1f77b4;" x="363.756522" xlink:href="#ma39837e9ce" y="157.836298"/>
     <use style="fill:#1f77b4;stroke:#1f77b4;" x="380.73913" xlink:href="#ma39837e9ce" y="191.753925"/>
     <use style="fill:#1f77b4;stroke:#1f77b4;" x="397.721739" xlink:href="#ma39837e9ce" y="190.011788"/>
     <use style="fill:#1f77b4;stroke:#1f77b4;" x="414.704348" xlink:href="#ma39837e9ce" y="192.960079"/>
     <use style="fill:#1f77b4;stroke:#1f77b4;" x="431.686957" xlink:href="#ma39837e9ce" y="200.470825"/>
     <use style="fill:#1f77b4;stroke:#1f77b4;" x="448.669565" xlink:href="#ma39837e9ce" y="267.616293"/>
     <use style="fill:#1f77b4;stroke:#1f77b4;" x="465.652174" xlink:href="#ma39837e9ce" y="198.708552"/>
     <use style="fill:#1f77b4;stroke:#1f77b4;" x="482.634783" xlink:href="#ma39837e9ce" y="284.572884"/>
     <use style="fill:#1f77b4;stroke:#1f77b4;" x="499.617391" xlink:href="#ma39837e9ce" y="220.482419"/>
     <use style="fill:#1f77b4;stroke:#1f77b4;" x="516.6" xlink:href="#ma39837e9ce" y="235.846118"/>
     <use style="fill:#1f77b4;stroke:#1f77b4;" x="533.582609" xlink:href="#ma39837e9ce" y="237.226017"/>
     <use style="fill:#1f77b4;stroke:#1f77b4;" x="550.565217" xlink:href="#ma39837e9ce" y="117.212863"/>
     <use style="fill:#1f77b4;stroke:#1f77b4;" x="567.547826" xlink:href="#ma39837e9ce" y="298.678075"/>
     <use style="fill:#1f77b4;stroke:#1f77b4;" x="584.530435" xlink:href="#ma39837e9ce" y="297.076124"/>
     <use style="fill:#1f77b4;stroke:#1f77b4;" x="601.513043" xlink:href="#ma39837e9ce" y="320.483589"/>
     <use style="fill:#1f77b4;stroke:#1f77b4;" x="618.495652" xlink:href="#ma39837e9ce" y="100.95293"/>
     <use style="fill:#1f77b4;stroke:#1f77b4;" x="635.478261" xlink:href="#ma39837e9ce" y="260.792462"/>
     <use style="fill:#1f77b4;stroke:#1f77b4;" x="652.46087" xlink:href="#ma39837e9ce" y="214.180199"/>
     <use style="fill:#1f77b4;stroke:#1f77b4;" x="669.443478" xlink:href="#ma39837e9ce" y="228.580081"/>
     <use style="fill:#1f77b4;stroke:#1f77b4;" x="686.426087" xlink:href="#ma39837e9ce" y="183.664395"/>
     <use style="fill:#1f77b4;stroke:#1f77b4;" x="703.408696" xlink:href="#ma39837e9ce" y="265.157845"/>
     <use style="fill:#1f77b4;stroke:#1f77b4;" x="720.391304" xlink:href="#ma39837e9ce" y="78.12"/>
     <use style="fill:#1f77b4;stroke:#1f77b4;" x="737.373913" xlink:href="#ma39837e9ce" y="163.94127"/>
     <use style="fill:#1f77b4;stroke:#1f77b4;" x="754.356522" xlink:href="#ma39837e9ce" y="102.017137"/>
     <use style="fill:#1f77b4;stroke:#1f77b4;" x="771.33913" xlink:href="#ma39837e9ce" y="212.739895"/>
     <use style="fill:#1f77b4;stroke:#1f77b4;" x="788.321739" xlink:href="#ma39837e9ce" y="99.38157"/>
     <use style="fill:#1f77b4;stroke:#1f77b4;" x="805.304348" xlink:href="#ma39837e9ce" y="296.852551"/>
     <use style="fill:#1f77b4;stroke:#1f77b4;" x="822.286957" xlink:href="#ma39837e9ce" y="181.671114"/>
     <use style="fill:#1f77b4;stroke:#1f77b4;" x="839.269565" xlink:href="#ma39837e9ce" y="116.298697"/>
     <use style="fill:#1f77b4;stroke:#1f77b4;" x="856.252174" xlink:href="#ma39837e9ce" y="213.129022"/>
     <use style="fill:#1f77b4;stroke:#1f77b4;" x="873.234783" xlink:href="#ma39837e9ce" y="229.867222"/>
     <use style="fill:#1f77b4;stroke:#1f77b4;" x="890.217391" xlink:href="#ma39837e9ce" y="429.345679"/>
     <use style="fill:#1f77b4;stroke:#1f77b4;" x="907.2" xlink:href="#ma39837e9ce" y="123.931475"/>
    </g>
   </g>
   <g id="line2d_32">
    <path clip-path="url(#pd8855adfe7)" d="M 126 244.071808 
L 142.982609 264.163585 
L 159.965217 266.879208 
L 176.947826 151.786455 
L 193.930435 122.840952 
L 210.913043 165.222943 
L 227.895652 255.366009 
L 244.878261 278.488856 
L 261.86087 247.722604 
L 278.843478 243.970943 
L 295.826087 238.315301 
L 312.808696 221.703736 
L 329.791304 310.846853 
L 346.773913 242.682677 
L 363.756522 194.293775 
L 380.73913 195.453924 
L 397.721739 197.452352 
L 414.704348 199.378884 
L 431.686957 206.006839 
L 448.669565 284.527361 
L 465.652174 239.836474 
L 482.634783 304.755757 
L 499.617391 245.416108 
L 516.6 231.941708 
L 533.582609 283.127783 
L 550.565217 125.406239 
L 567.547826 299.382417 
L 584.530435 289.839292 
L 601.513043 326.327136 
L 618.495652 104.528082 
L 635.478261 266.895865 
L 652.46087 214.372324 
L 669.443478 238.79131 
L 686.426087 188.169927 
L 703.408696 275.79253 
L 720.391304 123.426095 
L 737.373913 181.707141 
L 754.356522 140.171756 
L 771.33913 216.106164 
L 788.321739 156.976391 
L 805.304348 285.424385 
L 822.286957 161.407673 
L 839.269565 144.623695 
L 856.252174 212.753463 
L 873.234783 252.048938 
L 890.217391 430.92 
L 907.2 127.976869 
" style="fill:none;stroke:#ff7f0e;stroke-linecap:square;stroke-width:1.5;"/>
    <defs>
     <path d="M 0 1.5 
C 0.397805 1.5 0.77937 1.341951 1.06066 1.06066 
C 1.341951 0.77937 1.5 0.397805 1.5 0 
C 1.5 -0.397805 1.341951 -0.77937 1.06066 -1.06066 
C 0.77937 -1.341951 0.397805 -1.5 0 -1.5 
C -0.397805 -1.5 -0.77937 -1.341951 -1.06066 -1.06066 
C -1.341951 -0.77937 -1.5 -0.397805 -1.5 0 
C -1.5 0.397805 -1.341951 0.77937 -1.06066 1.06066 
C -0.77937 1.341951 -0.397805 1.5 0 1.5 
z
" id="m2a70d5e8ff" style="stroke:#ff7f0e;"/>
    </defs>
    <g clip-path="url(#pd8855adfe7)">
     <use style="fill:#ff7f0e;stroke:#ff7f0e;" x="126" xlink:href="#m2a70d5e8ff" y="244.071808"/>
     <use style="fill:#ff7f0e;stroke:#ff7f0e;" x="142.982609" xlink:href="#m2a70d5e8ff" y="264.163585"/>
     <use style="fill:#ff7f0e;stroke:#ff7f0e;" x="159.965217" xlink:href="#m2a70d5e8ff" y="266.879208"/>
     <use style="fill:#ff7f0e;stroke:#ff7f0e;" x="176.947826" xlink:href="#m2a70d5e8ff" y="151.786455"/>
     <use style="fill:#ff7f0e;stroke:#ff7f0e;" x="193.930435" xlink:href="#m2a70d5e8ff" y="122.840952"/>
     <use style="fill:#ff7f0e;stroke:#ff7f0e;" x="210.913043" xlink:href="#m2a70d5e8ff" y="165.222943"/>
     <use style="fill:#ff7f0e;stroke:#ff7f0e;" x="227.895652" xlink:href="#m2a70d5e8ff" y="255.366009"/>
     <use style="fill:#ff7f0e;stroke:#ff7f0e;" x="244.878261" xlink:href="#m2a70d5e8ff" y="278.488856"/>
     <use style="fill:#ff7f0e;stroke:#ff7f0e;" x="261.86087" xlink:href="#m2a70d5e8ff" y="247.722604"/>
     <use style="fill:#ff7f0e;stroke:#ff7f0e;" x="278.843478" xlink:href="#m2a70d5e8ff" y="243.970943"/>
     <use style="fill:#ff7f0e;stroke:#ff7f0e;" x="295.826087" xlink:href="#m2a70d5e8ff" y="238.315301"/>
     <use style="fill:#ff7f0e;stroke:#ff7f0e;" x="312.808696" xlink:href="#m2a70d5e8ff" y="221.703736"/>
     <use style="fill:#ff7f0e;stroke:#ff7f0e;" x="329.791304" xlink:href="#m2a70d5e8ff" y="310.846853"/>
     <use style="fill:#ff7f0e;stroke:#ff7f0e;" x="346.773913" xlink:href="#m2a70d5e8ff" y="242.682677"/>
     <use style="fill:#ff7f0e;stroke:#ff7f0e;" x="363.756522" xlink:href="#m2a70d5e8ff" y="194.293775"/>
     <use style="fill:#ff7f0e;stroke:#ff7f0e;" x="380.73913" xlink:href="#m2a70d5e8ff" y="195.453924"/>
     <use style="fill:#ff7f0e;stroke:#ff7f0e;" x="397.721739" xlink:href="#m2a70d5e8ff" y="197.452352"/>
     <use style="fill:#ff7f0e;stroke:#ff7f0e;" x="414.704348" xlink:href="#m2a70d5e8ff" y="199.378884"/>
     <use style="fill:#ff7f0e;stroke:#ff7f0e;" x="431.686957" xlink:href="#m2a70d5e8ff" y="206.006839"/>
     <use style="fill:#ff7f0e;stroke:#ff7f0e;" x="448.669565" xlink:href="#m2a70d5e8ff" y="284.527361"/>
     <use style="fill:#ff7f0e;stroke:#ff7f0e;" x="465.652174" xlink:href="#m2a70d5e8ff" y="239.836474"/>
     <use style="fill:#ff7f0e;stroke:#ff7f0e;" x="482.634783" xlink:href="#m2a70d5e8ff" y="304.755757"/>
     <use style="fill:#ff7f0e;stroke:#ff7f0e;" x="499.617391" xlink:href="#m2a70d5e8ff" y="245.416108"/>
     <use style="fill:#ff7f0e;stroke:#ff7f0e;" x="516.6" xlink:href="#m2a70d5e8ff" y="231.941708"/>
     <use style="fill:#ff7f0e;stroke:#ff7f0e;" x="533.582609" xlink:href="#m2a70d5e8ff" y="283.127783"/>
     <use style="fill:#ff7f0e;stroke:#ff7f0e;" x="550.565217" xlink:href="#m2a70d5e8ff" y="125.406239"/>
     <use style="fill:#ff7f0e;stroke:#ff7f0e;" x="567.547826" xlink:href="#m2a70d5e8ff" y="299.382417"/>
     <use style="fill:#ff7f0e;stroke:#ff7f0e;" x="584.530435" xlink:href="#m2a70d5e8ff" y="289.839292"/>
     <use style="fill:#ff7f0e;stroke:#ff7f0e;" x="601.513043" xlink:href="#m2a70d5e8ff" y="326.327136"/>
     <use style="fill:#ff7f0e;stroke:#ff7f0e;" x="618.495652" xlink:href="#m2a70d5e8ff" y="104.528082"/>
     <use style="fill:#ff7f0e;stroke:#ff7f0e;" x="635.478261" xlink:href="#m2a70d5e8ff" y="266.895865"/>
     <use style="fill:#ff7f0e;stroke:#ff7f0e;" x="652.46087" xlink:href="#m2a70d5e8ff" y="214.372324"/>
     <use style="fill:#ff7f0e;stroke:#ff7f0e;" x="669.443478" xlink:href="#m2a70d5e8ff" y="238.79131"/>
     <use style="fill:#ff7f0e;stroke:#ff7f0e;" x="686.426087" xlink:href="#m2a70d5e8ff" y="188.169927"/>
     <use style="fill:#ff7f0e;stroke:#ff7f0e;" x="703.408696" xlink:href="#m2a70d5e8ff" y="275.79253"/>
     <use style="fill:#ff7f0e;stroke:#ff7f0e;" x="720.391304" xlink:href="#m2a70d5e8ff" y="123.426095"/>
     <use style="fill:#ff7f0e;stroke:#ff7f0e;" x="737.373913" xlink:href="#m2a70d5e8ff" y="181.707141"/>
     <use style="fill:#ff7f0e;stroke:#ff7f0e;" x="754.356522" xlink:href="#m2a70d5e8ff" y="140.171756"/>
     <use style="fill:#ff7f0e;stroke:#ff7f0e;" x="771.33913" xlink:href="#m2a70d5e8ff" y="216.106164"/>
     <use style="fill:#ff7f0e;stroke:#ff7f0e;" x="788.321739" xlink:href="#m2a70d5e8ff" y="156.976391"/>
     <use style="fill:#ff7f0e;stroke:#ff7f0e;" x="805.304348" xlink:href="#m2a70d5e8ff" y="285.424385"/>
     <use style="fill:#ff7f0e;stroke:#ff7f0e;" x="822.286957" xlink:href="#m2a70d5e8ff" y="161.407673"/>
     <use style="fill:#ff7f0e;stroke:#ff7f0e;" x="839.269565" xlink:href="#m2a70d5e8ff" y="144.623695"/>
     <use style="fill:#ff7f0e;stroke:#ff7f0e;" x="856.252174" xlink:href="#m2a70d5e8ff" y="212.753463"/>
     <use style="fill:#ff7f0e;stroke:#ff7f0e;" x="873.234783" xlink:href="#m2a70d5e8ff" y="252.048938"/>
     <use style="fill:#ff7f0e;stroke:#ff7f0e;" x="890.217391" xlink:href="#m2a70d5e8ff" y="430.92"/>
     <use style="fill:#ff7f0e;stroke:#ff7f0e;" x="907.2" xlink:href="#m2a70d5e8ff" y="127.976869"/>
    </g>
   </g>
   <g id="line2d_33">
    <path clip-path="url(#pd8855adfe7)" d="M 669.443478 448.56 
L 669.443478 60.48 
" style="fill:none;stroke:#808080;stroke-dasharray:5.55,2.4;stroke-dashoffset:0;stroke-width:1.5;"/>
   </g>
   <g id="patch_3">
    <path d="M 126 448.56 
L 126 60.48 
" style="fill:none;stroke:#000000;stroke-linecap:square;stroke-linejoin:miter;stroke-width:0.8;"/>
   </g>
   <g id="patch_4">
    <path d="M 907.2 448.56 
L 907.2 60.48 
" style="fill:none;stroke:#000000;stroke-linecap:square;stroke-linejoin:miter;stroke-width:0.8;"/>
   </g>
   <g id="patch_5">
    <path d="M 126 448.56 
L 907.2 448.56 
" style="fill:none;stroke:#000000;stroke-linecap:square;stroke-linejoin:miter;stroke-width:0.8;"/>
   </g>
   <g id="patch_6">
    <path d="M 126 60.48 
L 907.2 60.48 
" style="fill:none;stroke:#000000;stroke-linecap:square;stroke-linejoin:miter;stroke-width:0.8;"/>
   </g>
   <g id="text_32">
    <!-- C Chemical shift of 2LJD -->
    <defs>
     <path d="M 41.3125 25.4375 
L 39.15625 36.71875 
Q 36.96875 48.296875 28.265625 48.296875 
Q 21.734375 48.296875 18.75 42.921875 
Q 14.984375 36.1875 14.984375 27.296875 
Q 14.984375 16.546875 18.65625 11.421875 
Q 22.359375 6.203125 28.265625 6.203125 
Q 34.8125 6.203125 38.328125 16.609375 
z
M 46.34375 40.375 
L 51.171875 54.6875 
L 59.1875 54.6875 
L 49.171875 25.046875 
L 51.125 14.359375 
Q 51.5625 11.96875 53.265625 9.96875 
Q 55.28125 7.625 56.84375 7.625 
L 61.140625 7.625 
L 61.140625 0 
L 55.765625 0 
Q 51.171875 0 47.078125 4.109375 
Q 45.0625 6.15625 44.234375 10.453125 
Q 42 5.03125 37.40625 0.78125 
Q 35.25 -1.21875 28.265625 -1.21875 
Q 16.796875 -1.21875 11.234375 6.203125 
Q 5.515625 13.875 5.515625 27.296875 
Q 5.515625 41.65625 11.71875 48.390625 
Q 18.609375 55.90625 28.265625 55.90625 
Q 43.453125 55.90625 46.34375 40.375 
z
" id="DejaVuSans-945"/>
     <path d="M 30.609375 48.390625 
Q 23.390625 48.390625 19.1875 42.75 
Q 14.984375 37.109375 14.984375 27.296875 
Q 14.984375 17.484375 19.15625 11.84375 
Q 23.34375 6.203125 30.609375 6.203125 
Q 37.796875 6.203125 41.984375 11.859375 
Q 46.1875 17.53125 46.1875 27.296875 
Q 46.1875 37.015625 41.984375 42.703125 
Q 37.796875 48.390625 30.609375 48.390625 
z
M 30.609375 56 
Q 42.328125 56 49.015625 48.375 
Q 55.71875 40.765625 55.71875 27.296875 
Q 55.71875 13.875 49.015625 6.21875 
Q 42.328125 -1.421875 30.609375 -1.421875 
Q 18.84375 -1.421875 12.171875 6.21875 
Q 5.515625 13.875 5.515625 27.296875 
Q 5.515625 40.765625 12.171875 48.375 
Q 18.84375 56 30.609375 56 
z
" id="DejaVuSans-111"/>
     <path d="M 9.8125 72.90625 
L 19.671875 72.90625 
L 19.671875 5.078125 
Q 19.671875 -8.109375 14.671875 -14.0625 
Q 9.671875 -20.015625 -1.421875 -20.015625 
L -5.171875 -20.015625 
L -5.171875 -11.71875 
L -2.09375 -11.71875 
Q 4.4375 -11.71875 7.125 -8.046875 
Q 9.8125 -4.390625 9.8125 5.078125 
z
" id="DejaVuSans-74"/>
    </defs>
    <g transform="translate(126 54.48)scale(0.12 -0.12)">
     <use xlink:href="#DejaVuSans-67"/>
     <use x="69.824219" xlink:href="#DejaVuSans-945"/>
     <use x="135.742188" xlink:href="#DejaVuSans-32"/>
     <use x="167.529297" xlink:href="#DejaVuSans-67"/>
     <use x="237.353516" xlink:href="#DejaVuSans-104"/>
     <use x="300.732422" xlink:href="#DejaVuSans-101"/>
     <use x="362.255859" xlink:href="#DejaVuSans-109"/>
     <use x="459.667969" xlink:href="#DejaVuSans-105"/>
     <use x="487.451172" xlink:href="#DejaVuSans-99"/>
     <use x="542.431641" xlink:href="#DejaVuSans-97"/>
     <use x="603.710938" xlink:href="#DejaVuSans-108"/>
     <use x="631.494141" xlink:href="#DejaVuSans-32"/>
     <use x="663.28125" xlink:href="#DejaVuSans-115"/>
     <use x="715.380859" xlink:href="#DejaVuSans-104"/>
     <use x="778.759766" xlink:href="#DejaVuSans-105"/>
     <use x="806.542969" xlink:href="#DejaVuSans-102"/>
     <use x="841.732422" xlink:href="#DejaVuSans-116"/>
     <use x="880.941406" xlink:href="#DejaVuSans-32"/>
     <use x="912.728516" xlink:href="#DejaVuSans-111"/>
     <use x="973.910156" xlink:href="#DejaVuSans-102"/>
     <use x="1009.115234" xlink:href="#DejaVuSans-32"/>
     <use x="1040.902344" xlink:href="#DejaVuSans-50"/>
     <use x="1104.525391" xlink:href="#DejaVuSans-76"/>
     <use x="1160.238281" xlink:href="#DejaVuSans-74"/>
     <use x="1189.730469" xlink:href="#DejaVuSans-68"/>
    </g>
   </g>
   <g id="legend_1">
    <g id="patch_7">
     <path d="M 793.23125 113.070625 
L 900.2 113.070625 
Q 902.2 113.070625 902.2 111.070625 
L 902.2 67.48 
Q 902.2 65.48 900.2 65.48 
L 793.23125 65.48 
Q 791.23125 65.48 791.23125 67.48 
L 791.23125 111.070625 
Q 791.23125 113.070625 793.23125 113.070625 
z
" style="fill:#ffffff;opacity:0.8;stroke:#cccccc;stroke-linejoin:miter;"/>
    </g>
    <g id="line2d_34">
     <path d="M 795.23125 73.578438 
L 815.23125 73.578438 
" style="fill:none;stroke:#2ca02c;stroke-linecap:square;stroke-width:1.5;"/>
    </g>
    <g id="line2d_35">
     <g>
      <use style="fill:#2ca02c;stroke:#2ca02c;" x="805.23125" xlink:href="#m2093634b3c" y="73.578438"/>
     </g>
    </g>
    <g id="text_33">
     <!-- experiment -->
     <defs>
      <path d="M 54.890625 54.6875 
L 35.109375 28.078125 
L 55.90625 0 
L 45.3125 0 
L 29.390625 21.484375 
L 13.484375 0 
L 2.875 0 
L 24.125 28.609375 
L 4.6875 54.6875 
L 15.28125 54.6875 
L 29.78125 35.203125 
L 44.28125 54.6875 
z
" id="DejaVuSans-120"/>
      <path d="M 41.109375 46.296875 
Q 39.59375 47.171875 37.8125 47.578125 
Q 36.03125 48 33.890625 48 
Q 26.265625 48 22.1875 43.046875 
Q 18.109375 38.09375 18.109375 28.8125 
L 18.109375 0 
L 9.078125 0 
L 9.078125 54.6875 
L 18.109375 54.6875 
L 18.109375 46.1875 
Q 20.953125 51.171875 25.484375 53.578125 
Q 30.03125 56 36.53125 56 
Q 37.453125 56 38.578125 55.875 
Q 39.703125 55.765625 41.0625 55.515625 
z
" id="DejaVuSans-114"/>
      <path d="M 54.890625 33.015625 
L 54.890625 0 
L 45.90625 0 
L 45.90625 32.71875 
Q 45.90625 40.484375 42.875 44.328125 
Q 39.84375 48.1875 33.796875 48.1875 
Q 26.515625 48.1875 22.3125 43.546875 
Q 18.109375 38.921875 18.109375 30.90625 
L 18.109375 0 
L 9.078125 0 
L 9.078125 54.6875 
L 18.109375 54.6875 
L 18.109375 46.1875 
Q 21.34375 51.125 25.703125 53.5625 
Q 30.078125 56 35.796875 56 
Q 45.21875 56 50.046875 50.171875 
Q 54.890625 44.34375 54.890625 33.015625 
z
" id="DejaVuSans-110"/>
     </defs>
     <g transform="translate(823.23125 77.078438)scale(0.1 -0.1)">
      <use xlink:href="#DejaVuSans-101"/>
      <use x="61.507812" xlink:href="#DejaVuSans-120"/>
      <use x="120.6875" xlink:href="#DejaVuSans-112"/>
      <use x="184.164062" xlink:href="#DejaVuSans-101"/>
      <use x="245.6875" xlink:href="#DejaVuSans-114"/>
      <use x="286.800781" xlink:href="#DejaVuSans-105"/>
      <use x="314.583984" xlink:href="#DejaVuSans-109"/>
      <use x="411.996094" xlink:href="#DejaVuSans-101"/>
      <use x="473.519531" xlink:href="#DejaVuSans-110"/>
      <use x="536.898438" xlink:href="#DejaVuSans-116"/>
     </g>
    </g>
    <g id="line2d_36">
     <path d="M 795.23125 88.256563 
L 815.23125 88.256563 
" style="fill:none;stroke:#1f77b4;stroke-linecap:square;stroke-width:1.5;"/>
    </g>
    <g id="line2d_37">
     <g>
      <use style="fill:#1f77b4;stroke:#1f77b4;" x="805.23125" xlink:href="#ma39837e9ce" y="88.256563"/>
     </g>
    </g>
    <g id="text_34">
     <!-- Forcefield_PTM -->
     <defs>
      <path d="M 50.984375 -16.609375 
L 50.984375 -23.578125 
L -0.984375 -23.578125 
L -0.984375 -16.609375 
z
" id="DejaVuSans-95"/>
      <path d="M 19.671875 64.796875 
L 19.671875 37.40625 
L 32.078125 37.40625 
Q 38.96875 37.40625 42.71875 40.96875 
Q 46.484375 44.53125 46.484375 51.125 
Q 46.484375 57.671875 42.71875 61.234375 
Q 38.96875 64.796875 32.078125 64.796875 
z
M 9.8125 72.90625 
L 32.078125 72.90625 
Q 44.34375 72.90625 50.609375 67.359375 
Q 56.890625 61.8125 56.890625 51.125 
Q 56.890625 40.328125 50.609375 34.8125 
Q 44.34375 29.296875 32.078125 29.296875 
L 19.671875 29.296875 
L 19.671875 0 
L 9.8125 0 
z
" id="DejaVuSans-80"/>
      <path d="M 9.8125 72.90625 
L 24.515625 72.90625 
L 43.109375 23.296875 
L 61.8125 72.90625 
L 76.515625 72.90625 
L 76.515625 0 
L 66.890625 0 
L 66.890625 64.015625 
L 48.09375 14.015625 
L 38.1875 14.015625 
L 19.390625 64.015625 
L 19.390625 0 
L 9.8125 0 
z
" id="DejaVuSans-77"/>
     </defs>
     <g transform="translate(823.23125 91.756563)scale(0.1 -0.1)">
      <use xlink:href="#DejaVuSans-70"/>
      <use x="57.472656" xlink:href="#DejaVuSans-111"/>
      <use x="118.654297" xlink:href="#DejaVuSans-114"/>
      <use x="159.736328" xlink:href="#DejaVuSans-99"/>
      <use x="214.716797" xlink:href="#DejaVuSans-101"/>
      <use x="276.240234" xlink:href="#DejaVuSans-102"/>
      <use x="311.445312" xlink:href="#DejaVuSans-105"/>
      <use x="339.228516" xlink:href="#DejaVuSans-101"/>
      <use x="400.751953" xlink:href="#DejaVuSans-108"/>
      <use x="428.535156" xlink:href="#DejaVuSans-100"/>
      <use x="492.011719" xlink:href="#DejaVuSans-95"/>
      <use x="542.011719" xlink:href="#DejaVuSans-80"/>
      <use x="602.314453" xlink:href="#DejaVuSans-84"/>
      <use x="663.398438" xlink:href="#DejaVuSans-77"/>
     </g>
    </g>
    <g id="line2d_38">
     <path d="M 795.23125 103.212812 
L 815.23125 103.212812 
" style="fill:none;stroke:#ff7f0e;stroke-linecap:square;stroke-width:1.5;"/>
    </g>
    <g id="line2d_39">
     <g>
      <use style="fill:#ff7f0e;stroke:#ff7f0e;" x="805.23125" xlink:href="#m2a70d5e8ff" y="103.212812"/>
     </g>
    </g>
    <g id="text_35">
     <!-- ff03PTM_CMAP -->
     <g transform="translate(823.23125 106.712812)scale(0.1 -0.1)">
      <use xlink:href="#DejaVuSans-102"/>
      <use x="35.205078" xlink:href="#DejaVuSans-102"/>
      <use x="70.410156" xlink:href="#DejaVuSans-48"/>
      <use x="134.033203" xlink:href="#DejaVuSans-51"/>
      <use x="197.65625" xlink:href="#DejaVuSans-80"/>
      <use x="257.958984" xlink:href="#DejaVuSans-84"/>
      <use x="319.042969" xlink:href="#DejaVuSans-77"/>
      <use x="405.322266" xlink:href="#DejaVuSans-95"/>
      <use x="455.322266" xlink:href="#DejaVuSans-67"/>
      <use x="525.146484" xlink:href="#DejaVuSans-77"/>
      <use x="611.425781" xlink:href="#DejaVuSans-65"/>
      <use x="679.833984" xlink:href="#DejaVuSans-80"/>
     </g>
    </g>
   </g>
  </g>
 </g>
 <defs>
  <clipPath id="pd8855adfe7">
   <rect height="388.08" width="781.2" x="126" y="60.48"/>
  </clipPath>
 </defs>
</svg>
